RobotoSerifDisplay-HairlineWidth100.ufo
<glyph name="numbersign" format="2">
  <advance width="429.296"/>
  <unicode hex="0023"/>
  <outline>
    <contour>
      <point x="75.878" y="0.0" type="line"/>
      <point x="93.724" y="0.0" type="line"/>
      <point x="213.526" y="750.0" type="line"/>
      <point x="194.978" y="750.0" type="line"/>
    </contour>
    <contour>
      <point x="32.16" y="258.22" type="line"/>
      <point x="374.99" y="258.22" type="line"/>
      <point x="374.99" y="285.22" type="line"/>
      <point x="32.16" y="285.22" type="line"/>
    </contour>
    <contour>
      <point x="62.574" y="483.92" type="line"/>
      <point x="406.106" y="483.92" type="line"/>
      <point x="406.106" y="510.92" type="line"/>
      <point x="62.574" y="510.92" type="line"/>
    </contour>
    <contour>
      <point x="215.23" y="0.0" type="line"/>
      <point x="233.076" y="0.0" type="line"/>
      <point x="352.374" y="750.0" type="line"/>
      <point x="333.89" y="750.0" type="line"/>
    </contour>
  </outline>
</glyph>
<glyph name="F" format="2">
  <advance width="374"/>
  <unicode hex="0046"/>
  <outline>
    <contour>
      <point x="118.718" y="692.2" type="line"/>
      <point x="246.214" y="692.2" type="line" smooth="yes"/>
      <point x="303.654" y="692.2"/>
      <point x="322.422" y="685.08"/>
      <point x="324.446" y="657.7" type="curve" smooth="yes"/>
      <point x="331.912" y="557.24" type="line"/>
      <point x="345.04200000000003" y="557.24" type="line"/>
      <point x="345.04200000000003" y="710.0" type="line"/>
      <point x="24.222" y="710.0" type="line"/>
      <point x="24.222" y="694.62" type="line"/>
      <point x="30.918" y="694.62" type="line" smooth="yes"/>
      <point x="60.396" y="694.62"/>
      <point x="83.222" y="689.34"/>
      <point x="83.222" y="667.22" type="curve" smooth="yes"/>
      <point x="83.222" y="42.78" type="line" smooth="yes"/>
      <point x="83.222" y="20.66"/>
      <point x="60.418" y="15.38"/>
      <point x="30.918" y="15.38" type="curve" smooth="yes"/>
      <point x="24.222" y="15.38" type="line"/>
      <point x="24.222" y="0.0" type="line"/>
      <point x="188.538" y="0.0" type="line"/>
      <point x="188.538" y="15.38" type="line"/>
      <point x="176.718" y="15.38" type="line" smooth="yes"/>
      <point x="150.418" y="15.38"/>
      <point x="118.718" y="16.66"/>
      <point x="118.718" y="41.38" type="curve" smooth="yes"/>
    </contour>
    <contour>
      <point x="109.922" y="365.96" type="curve"/>
      <point x="109.922" y="350.58" type="line"/>
      <point x="202.059791307022" y="348.580003240824"/>
      <point x="246.902198017876" y="347.43955918249"/>
      <point x="291.0" y="339.62" type="curve"/>
      <point x="291.0" y="376.64" type="line"/>
      <point x="246.902198017876" y="369.10044081751"/>
      <point x="202.059791307022" y="367.959996759176"/>
    </contour>
  </outline>
</glyph>
<glyph name="K" format="2">
  <advance width="454.622"/>
  <unicode hex="004B"/>
  <outline>
    <contour>
      <point x="24.222" y="0.0" type="line"/>
      <point x="177.718" y="0.0" type="line"/>
      <point x="177.718" y="15.38" type="line"/>
      <point x="171.418" y="15.38" type="line" smooth="yes"/>
      <point x="148.218" y="15.38"/>
      <point x="118.718" y="18.38"/>
      <point x="118.718" y="25.38" type="curve" smooth="yes"/>
      <point x="118.718" y="684.62" type="line" smooth="yes"/>
      <point x="118.718" y="691.62"/>
      <point x="148.218" y="694.62"/>
      <point x="171.418" y="694.62" type="curve" smooth="yes"/>
      <point x="177.718" y="694.62" type="line"/>
      <point x="177.718" y="710.0" type="line"/>
      <point x="24.222" y="710.0" type="line"/>
      <point x="24.222" y="694.62" type="line"/>
      <point x="30.918" y="694.62" type="line" smooth="yes"/>
      <point x="60.396" y="694.62"/>
      <point x="83.222" y="689.34"/>
      <point x="83.222" y="667.22" type="curve" smooth="yes"/>
      <point x="83.222" y="42.78" type="line" smooth="yes"/>
      <point x="83.222" y="20.66"/>
      <point x="60.418" y="15.38"/>
      <point x="30.918" y="15.38" type="curve" smooth="yes"/>
      <point x="24.222" y="15.38" type="line"/>
    </contour>
    <contour>
      <point x="298.946" y="0.0" type="line"/>
      <point x="444.1" y="0.0" type="line"/>
      <point x="444.1" y="15.38" type="line"/>
      <point x="437.624" y="15.38" type="line" smooth="yes"/>
      <point x="409.86" y="15.38"/>
      <point x="403.469126704124" y="18.8047668256314"/>
      <point x="387.374" y="44.36" type="curve" smooth="yes"/>
      <point x="171.332" y="388.76" type="line"/>
      <point x="163.21800000000002" y="364.82" type="line"/>
      <point x="359.05" y="666.52" type="line" smooth="yes"/>
      <point x="372.718" y="685.62"/>
      <point x="384.416" y="694.62"/>
      <point x="407.41" y="694.62" type="curve" smooth="yes"/>
      <point x="420.58" y="694.62" type="line"/>
      <point x="420.58" y="710.0" type="line"/>
      <point x="292.804" y="710.0" type="line"/>
      <point x="292.804" y="694.62" type="line"/>
      <point x="300.27" y="694.62" type="line" smooth="yes"/>
      <point x="326.14" y="694.62"/>
      <point x="349.704" y="686.9"/>
      <point x="350.562" y="680.48" type="curve"/>
      <point x="145.81" y="368.02" type="line"/>
      <point x="145.81" y="362.46" type="line"/>
      <point x="353.868" y="27.1" type="line"/>
      <point x="353.868" y="19.240000000000002"/>
      <point x="326.324" y="15.38"/>
      <point x="305.226" y="15.38" type="curve" smooth="yes"/>
      <point x="298.946" y="15.38" type="line"/>
    </contour>
  </outline>
</glyph>
<glyph name="L" format="2">
  <advance width="376.324"/>
  <unicode hex="004C"/>
  <outline>
    <contour>
      <point x="179.434" y="710.0" type="line"/>
      <point x="179.434" y="694.62" type="line"/>
      <point x="172.276" y="694.62" type="line" smooth="yes"/>
      <point x="142.524" y="694.62"/>
      <point x="118.718" y="689.9"/>
      <point x="118.718" y="670.86" type="curve" smooth="yes"/>
      <point x="118.718" y="17.8" type="line"/>
      <point x="236.31" y="17.8" type="line" smooth="yes"/>
      <point x="305.996" y="17.8"/>
      <point x="324.282" y="26.64"/>
      <point x="327.064" y="64.76" type="curve" smooth="yes"/>
      <point x="335.552" y="194.62" type="line"/>
      <point x="348.924" y="194.62" type="line"/>
      <point x="348.924" y="0.0" type="line"/>
      <point x="24.222" y="0.0" type="line"/>
      <point x="24.222" y="15.38" type="line"/>
      <point x="30.918" y="15.38" type="line" smooth="yes"/>
      <point x="60.418" y="15.38"/>
      <point x="83.222" y="20.66"/>
      <point x="83.222" y="42.78" type="curve" smooth="yes"/>
      <point x="83.222" y="667.22" type="line" smooth="yes"/>
      <point x="83.222" y="689.34"/>
      <point x="60.396" y="694.62"/>
      <point x="30.918" y="694.62" type="curve" smooth="yes"/>
      <point x="24.222" y="694.62" type="line"/>
      <point x="24.222" y="710.0" type="line"/>
    </contour>
  </outline>
</glyph>
<glyph name="S" format="2">
  <advance width="397"/>
  <unicode hex="0053"/>
  <outline>
    <contour>
      <point x="220" y="9" type="curve" smooth="yes"/>
      <point x="136" y="9"/>
      <point x="82" y="80"/>
      <point x="55" y="190" type="curve"/>
      <point x="41" y="190" type="line"/>
      <point x="41" y="0.0" type="line"/>
      <point x="57" y="0.0" type="line"/>
      <point x="63" y="125" type="line"/>
      <point x="64" y="129"/>
      <point x="57" y="146"/>
      <point x="53" y="145" type="curve"/>
      <point x="75" y="65"/>
      <point x="132" y="-10.0"/>
      <point x="220" y="-10.0" type="curve" smooth="yes"/>
      <point x="303" y="-10.0"/>
      <point x="368" y="57"/>
      <point x="368" y="186" type="curve" smooth="yes"/>
      <point x="368" y="319"/>
      <point x="292" y="360"/>
      <point x="217" y="390" type="curve" smooth="yes"/>
      <point x="146" y="419"/>
      <point x="85" y="448"/>
      <point x="85" y="555" type="curve" smooth="yes"/>
      <point x="85" y="640"/>
      <point x="126" y="701"/>
      <point x="193" y="701" type="curve" smooth="yes"/>
      <point x="262" y="701"/>
      <point x="309" y="632"/>
      <point x="326" y="555" type="curve"/>
      <point x="340" y="555" type="line"/>
      <point x="340" y="710.0" type="line"/>
      <point x="324" y="710.0" type="line"/>
      <point x="317" y="601" type="line"/>
      <point x="318" y="597"/>
      <point x="329" y="584"/>
      <point x="331" y="587" type="curve"/>
      <point x="314" y="653"/>
      <point x="267" y="720.0"/>
      <point x="192" y="720.0" type="curve" smooth="yes"/>
      <point x="112" y="720.0"/>
      <point x="57" y="654"/>
      <point x="57" y="548" type="curve" smooth="yes"/>
      <point x="57" y="418"/>
      <point x="130" y="379"/>
      <point x="202" y="349" type="curve" smooth="yes"/>
      <point x="273" y="320"/>
      <point x="340" y="286"/>
      <point x="340" y="174" type="curve" smooth="yes"/>
      <point x="340" y="71"/>
      <point x="290" y="9"/>
    </contour>
  </outline>
</glyph>
<glyph name="Y" format="2">
  <advance width="432.988"/>
  <unicode hex="0059"/>
  <outline>
    <contour>
      <point x="200.078" y="322.92" type="line"/>
      <point x="200.078" y="42.78" type="line" smooth="yes"/>
      <point x="200.078" y="20.66"/>
      <point x="176.196" y="15.38"/>
      <point x="145.278" y="15.38" type="curve" smooth="yes"/>
      <point x="134.48" y="15.38" type="line"/>
      <point x="134.48" y="0.0" type="line"/>
      <point x="301.676" y="0.0" type="line"/>
      <point x="301.676" y="15.38" type="line"/>
      <point x="290.176" y="15.38" type="line" smooth="yes"/>
      <point x="259.258" y="15.38"/>
      <point x="235.376" y="20.66"/>
      <point x="235.376" y="42.78" type="curve" smooth="yes"/>
      <point x="235.376" y="322.92" type="line"/>
      <point x="228.65800000000002" y="290.06" type="line"/>
      <point x="372.812" y="658.58" type="line" smooth="yes"/>
      <point x="385.5" y="688.38"/>
      <point x="402.718" y="694.62"/>
      <point x="421.938" y="694.62" type="curve" smooth="yes"/>
      <point x="425.578" y="694.62" type="line"/>
      <point x="425.578" y="710.0" type="line"/>
      <point x="301.068" y="710.0" type="line"/>
      <point x="301.068" y="694.62" type="line"/>
      <point x="313.438" y="694.62" type="line" smooth="yes"/>
      <point x="342.233875365178" y="694.62"/>
      <point x="362.328307069252" y="685.8869320073879"/>
      <point x="362.41" y="672.06" type="curve"/>
      <point x="220.608" y="310.88" type="line"/>
      <point x="231.032" y="320.48" type="line"/>
      <point x="86.492" y="684.06" type="line"/>
      <point x="86.492" y="691.48"/>
      <point x="117.112" y="694.62"/>
      <point x="140.07" y="694.62" type="curve" smooth="yes"/>
      <point x="151.45" y="694.62" type="line"/>
      <point x="151.45" y="710.0" type="line"/>
      <point x="6.906000000000001" y="710.0" type="line"/>
      <point x="6.906000000000001" y="694.62" type="line"/>
      <point x="10.106" y="694.62" type="line" smooth="yes"/>
      <point x="30.962" y="694.62"/>
      <point x="45.058" y="693.34"/>
      <point x="53.162" y="673.22" type="curve" smooth="yes"/>
      <point x="206.938" y="289.78" type="line"/>
    </contour>
  </outline>
</glyph>
<glyph name="underscore" format="2">
  <advance width="327.8"/>
  <unicode hex="005F"/>
  <outline>
    <contour>
      <point x="-3.2" y="-107.9" type="line"/>
      <point x="-3.2" y="-140.14" type="line"/>
      <point x="331.9" y="-140.14" type="line"/>
      <point x="331.9" y="-107.9" type="line"/>
    </contour>
  </outline>
</glyph>
<glyph name="c" format="2">
  <advance width="349"/>
  <unicode hex="0063"/>
  <outline>
    <contour>
      <point x="191.824" y="7.380000000000001" type="curve" smooth="yes"/>
      <point x="111.988" y="7.380000000000001"/>
      <point x="61.038" y="101.64687550200803"/>
      <point x="61.038" y="259.14" type="curve" smooth="yes"/>
      <point x="61.038" y="407.7358554216867"/>
      <point x="110.944" y="510.62"/>
      <point x="201.114" y="510.62" type="curve" smooth="yes"/>
      <point x="251.81138028169013" y="510.62"/>
      <point x="282.676" y="487.08"/>
      <point x="296.64" y="453.66" type="curve"/>
      <point x="299" y="465"/>
      <point x="294" y="484"/>
      <point x="280.158" y="484.0" type="curve"/>
      <point x="280.158" y="400.1" type="line"/>
      <point x="315.686" y="400.1" type="line"/>
      <point x="315.686" y="469.28" type="line"/>
      <point x="303.952" y="488.68"/>
      <point x="266.622" y="528.0"/>
      <point x="201.114" y="528.0" type="curve" smooth="yes"/>
      <point x="94.57" y="528.0"/>
      <point x="23.882" y="415.28"/>
      <point x="23.882" y="259.14" type="curve" smooth="yes"/>
      <point x="23.882" y="95.84"/>
      <point x="95.11" y="-10.0"/>
      <point x="190.68" y="-10.0" type="curve" smooth="yes"/>
      <point x="261.148" y="-10.0"/>
      <point x="303.556" y="48.34"/>
      <point x="326.602" y="117.9" type="curve"/>
      <point x="314.31" y="128.58" type="line"/>
      <point x="297.046" y="70.3"/>
      <point x="259.8051602209945" y="7.380000000000001"/>
    </contour>
  </outline>
</glyph>
<glyph name="n" format="2">
  <advance width="398"/>
  <unicode hex="006E"/>
  <outline>
    <contour>
      <point x="18.066" y="0.0" type="line"/>
      <point x="154.464" y="0.0" type="line"/>
      <point x="154.464" y="15.38" type="line"/>
      <point x="152.826" y="15.38" type="line" smooth="yes"/>
      <point x="133.518" y="15.38"/>
      <point x="106.8" y="18.52"/>
      <point x="106.8" y="25.38" type="curve" smooth="yes"/>
      <point x="106.8" y="408.3" type="line"/>
      <point x="105.656" y="409.56" type="line"/>
      <point x="105.656" y="518.0" type="line"/>
      <point x="18.066" y="518.0" type="line"/>
      <point x="18.066" y="503.48" type="line"/>
      <point x="30.5" y="501.48" type="line" smooth="yes"/>
      <point x="62.838" y="496.06"/>
      <point x="71.986" y="492.36"/>
      <point x="71.986" y="475.4" type="curve" smooth="yes"/>
      <point x="71.986" y="40.2" type="line" smooth="yes"/>
      <point x="71.986" y="19.8"/>
      <point x="49.644" y="15.38"/>
      <point x="19.846" y="15.38" type="curve" smooth="yes"/>
      <point x="18.066" y="15.38" type="line"/>
    </contour>
    <contour>
      <point x="386.044" y="0.0" type="line"/>
      <point x="386.044" y="15.38" type="line"/>
      <point x="384.462" y="15.38" type="line" smooth="yes"/>
      <point x="354.664" y="15.38"/>
      <point x="332.542" y="19.8"/>
      <point x="332.542" y="40.2" type="curve" smooth="yes"/>
      <point x="332.542" y="375.6" type="line" smooth="yes"/>
      <point x="332.542" y="480.02"/>
      <point x="294.74" y="528.0"/>
      <point x="231.056" y="528.0" type="curve" smooth="yes"/>
      <point x="175.332" y="528.0"/>
      <point x="135.936" y="483.28"/>
      <point x="100.576" y="409.42" type="curve"/>
      <point x="100.576" y="381.48" type="line"/>
      <point x="135.694" y="459.48"/>
      <point x="174.726" y="508.2"/>
      <point x="224.864" y="508.2" type="curve" smooth="yes"/>
      <point x="278.266" y="508.2"/>
      <point x="297.728" y="464.74"/>
      <point x="297.728" y="366.14" type="curve" smooth="yes"/>
      <point x="297.728" y="25.38" type="line" smooth="yes"/>
      <point x="297.728" y="18.38"/>
      <point x="268.866" y="15.38"/>
      <point x="250.724" y="15.38" type="curve" smooth="yes"/>
      <point x="249.866" y="15.38" type="line"/>
      <point x="249.866" y="0.0" type="line"/>
    </contour>
  </outline>
</glyph>
<glyph name="u" format="2">
  <advance width="382"/>
  <unicode hex="0075"/>
  <outline>
    <contour>
      <point x="96.52" y="518.0" type="line"/>
      <point x="7.764" y="518.0" type="line"/>
      <point x="7.764" y="502.62" type="line"/>
      <point x="11.172" y="502.34" type="line" smooth="yes"/>
      <point x="41.476" y="501.22"/>
      <point x="61.706" y="496.66"/>
      <point x="61.706" y="476.26" type="curve" smooth="yes"/>
      <point x="61.706" y="146.7" type="line" smooth="yes"/>
      <point x="61.706" y="38.84"/>
      <point x="100.65" y="-10.0"/>
      <point x="165.17" y="-10.0" type="curve" smooth="yes"/>
      <point x="218.256" y="-10.0"/>
      <point x="256.772" y="34.72"/>
      <point x="291.274" y="106.0" type="curve"/>
      <point x="291.274" y="134.22" type="line"/>
      <point x="257.014" y="55.94"/>
      <point x="218.3" y="9.8"/>
      <point x="170.504" y="9.8" type="curve" smooth="yes"/>
      <point x="116.542" y="9.8"/>
      <point x="96.52" y="52.4"/>
      <point x="96.52" y="151.86" type="curve" smooth="yes"/>
    </contour>
    <contour>
      <point x="319.162" y="518.0" type="line"/>
      <point x="225.104" y="518.0" type="line"/>
      <point x="225.104" y="502.62" type="line"/>
      <point x="229.218" y="502.34" type="line"/>
      <point x="264.556" y="501.78"/>
      <point x="284.348" y="496.66"/>
      <point x="284.348" y="476.26" type="curve" smooth="yes"/>
      <point x="284.348" y="107.023" type="line"/>
      <point x="285.492" y="106.743" type="line"/>
      <point x="285.492" y="0.0" type="line"/>
      <point x="373.962" y="0.0" type="line"/>
      <point x="373.962" y="15.38" type="line"/>
      <point x="371.862" y="15.38" type="line" smooth="yes"/>
      <point x="341.042" y="15.38"/>
      <point x="319.162" y="19.8"/>
      <point x="319.162" y="40.2" type="curve" smooth="yes"/>
    </contour>
  </outline>
</glyph>
<glyph name="registered" format="2">
  <advance width="575.62"/>
  <unicode hex="00AE"/>
  <outline>
    <contour>
      <point x="52.602" y="355.0" type="curve" smooth="yes"/>
      <point x="52.602" y="554.44"/>
      <point x="151.382" y="707.58"/>
      <point x="287.7" y="707.58" type="curve" smooth="yes"/>
      <point x="424.01800000000003" y="707.58"/>
      <point x="523.018" y="554.44"/>
      <point x="523.018" y="355.0" type="curve" smooth="yes"/>
      <point x="523.018" y="155.56"/>
      <point x="424.01800000000003" y="2.42"/>
      <point x="287.7" y="2.42" type="curve" smooth="yes"/>
      <point x="151.382" y="2.42"/>
      <point x="52.602" y="155.56"/>
    </contour>
    <contour>
      <point x="27.4" y="355.0" type="curve" smooth="yes"/>
      <point x="27.4" y="138.0"/>
      <point x="140.2" y="-28.0"/>
      <point x="287.7" y="-28.0" type="curve" smooth="yes"/>
      <point x="435.222" y="-28.0"/>
      <point x="548.22" y="138.0"/>
      <point x="548.22" y="355.0" type="curve" smooth="yes"/>
      <point x="548.22" y="572.0"/>
      <point x="435.222" y="738.0"/>
      <point x="287.7" y="738.0" type="curve" smooth="yes"/>
      <point x="140.2" y="738.0"/>
      <point x="27.4" y="572.0"/>
    </contour>
    <contour>
      <point x="178.89" y="153.0" type="line"/>
      <point x="292.978" y="153.0" type="line"/>
      <point x="292.978" y="180.0" type="line"/>
      <point x="279.114" y="180.0" type="line" smooth="yes"/>
      <point x="266.414" y="180.0"/>
      <point x="248.614" y="181.0"/>
      <point x="248.614" y="185.0" type="curve" smooth="yes"/>
      <point x="248.614" y="321.86" type="line"/>
      <point x="291.536" y="321.86" type="line" smooth="yes"/>
      <point x="353.0" y="321.86"/>
      <point x="396.366" y="368.860992125988"/>
      <point x="396.366" y="443.0" type="curve" smooth="yes"/>
      <point x="396.366" y="514.997882352944"/>
      <point x="356.2" y="557.0"/>
      <point x="293.636" y="557.0" type="curve" smooth="yes"/>
      <point x="178.89" y="557.0" type="line"/>
      <point x="178.89" y="530.0" type="line"/>
      <point x="183.09" y="530.0" type="line" smooth="yes"/>
      <point x="202.09" y="530.0"/>
      <point x="216.088" y="526.0"/>
      <point x="216.088" y="510.0" type="curve" smooth="yes"/>
      <point x="216.088" y="200.0" type="line" smooth="yes"/>
      <point x="216.088" y="184.0"/>
      <point x="202.09" y="180.0"/>
      <point x="183.09" y="180.0" type="curve" smooth="yes"/>
      <point x="178.89" y="180.0" type="line"/>
    </contour>
    <contour>
      <point x="293.614" y="527.0" type="line" smooth="yes"/>
      <point x="339.244" y="527.0"/>
      <point x="361.74" y="503.005662921348"/>
      <point x="361.74" y="443.0" type="curve" smooth="yes"/>
      <point x="361.74" y="383.584907216496"/>
      <point x="339.244" y="351.86"/>
      <point x="291.514" y="351.86" type="curve" smooth="yes"/>
      <point x="248.614" y="351.86" type="line"/>
      <point x="248.614" y="527.0" type="line"/>
    </contour>
    <contour>
      <point x="294.33" y="340.16" type="line"/>
      <point x="358.804" y="152.0" type="line"/>
      <point x="412.09" y="152.0" type="line"/>
      <point x="412.09" y="179.0" type="line"/>
      <point x="406.932" y="179.0" type="line" smooth="yes"/>
      <point x="395.486" y="179.0"/>
      <point x="386.228" y="182.0"/>
      <point x="381.248" y="195.0" type="curve" smooth="yes"/>
      <point x="325.514" y="347.44" type="line"/>
    </contour>
  </outline>
</glyph>
<glyph name="eth" format="2">
  <advance width="381.076"/>
  <unicode hex="00F0"/>
  <outline>
    <contour>
      <point x="316.97" y="401.26" type="curve"/>
      <point x="297.948" y="473.82"/>
      <point x="246.81" y="518.0"/>
      <point x="193.572" y="518.0" type="curve" smooth="yes"/>
      <point x="98.452" y="518.0"/>
      <point x="30.742" y="413.0"/>
      <point x="30.742" y="255.0" type="curve" smooth="yes"/>
      <point x="30.742" y="97.0"/>
      <point x="98.286" y="-12.0"/>
      <point x="192.154" y="-12.0" type="curve" smooth="yes"/>
      <point x="289.384" y="-12.0"/>
      <point x="351.234" y="103.4"/>
      <point x="351.234" y="291.28" type="curve" smooth="yes"/>
      <point x="351.234" y="484.023856823292"/>
      <point x="288.594385355642" y="667.560439217744"/>
      <point x="114.318" y="757.16" type="curve"/>
      <point x="104.378" y="735.16" type="line"/>
      <point x="257.763631051924" y="645.756661897438"/>
      <point x="314.32" y="495.41112941179"/>
      <point x="314.32" y="291.28" type="curve" smooth="yes"/>
      <point x="314.32" y="118.26"/>
      <point x="273.066" y="18.0"/>
      <point x="192.154" y="18.0" type="curve" smooth="yes"/>
      <point x="113.924" y="18.0"/>
      <point x="67.898" y="112.86"/>
      <point x="67.898" y="255.0" type="curve" smooth="yes"/>
      <point x="67.898" y="396.0"/>
      <point x="119.586" y="488.0"/>
      <point x="195.42000000000002" y="488.0" type="curve" smooth="yes"/>
      <point x="251.934" y="488.0"/>
      <point x="289.472" y="442.42"/>
      <point x="326.668" y="354.84" type="curve"/>
      <point x="335.408" y="384.84"/>
      <point x="333.452" y="394.42"/>
    </contour>
    <contour>
      <point x="71.196" y="584.3" type="line"/>
      <point x="79.376" y="559.16" type="line"/>
      <point x="309.836" y="719.64" type="line"/>
      <point x="301.656" y="744.78" type="line"/>
    </contour>
  </outline>
</glyph>
<glyph name="ohorn" format="2">
  <advance width="397.864"/>
  <unicode hex="01A1"/>
  <anchor x="195.958" y="538.0" name="top"/>
  <outline>
    <contour>
      <point x="210.142" y="495.96" type="curve"/>
      <point x="341.391651721412" y="485.259911424548"/>
      <point x="376.072" y="556.88"/>
      <point x="380.908" y="685.7" type="curve"/>
      <point x="347.48" y="685.7" type="line"/>
      <point x="342.56600000000003" y="555.42"/>
      <point x="316.97" y="519.4"/>
      <point x="195.672" y="519.4" type="curve"/>
      <point x="198.87" y="515.1"/>
      <point x="207.646" y="499.4"/>
    </contour>
    <contour>
      <point x="194.814" y="-11.72" type="curve"/>
      <point x="290.704" y="-11.72"/>
      <point x="360.052" y="95.7"/>
      <point x="360.052" y="253.7" type="curve" smooth="yes"/>
      <point x="360.052" y="378.68"/>
      <point x="315.124" y="474.1"/>
      <point x="247.052" y="503.82" type="curve"/>
      <point x="230.45" y="515.26"/>
      <point x="213.572" y="519.4"/>
      <point x="194.814" y="519.4" type="curve" smooth="yes"/>
      <point x="98.924" y="519.4"/>
      <point x="29.576" y="410.84"/>
      <point x="29.576" y="253.7" type="curve" smooth="yes"/>
      <point x="29.576" y="95.7"/>
      <point x="98.924" y="-11.72"/>
    </contour>
    <contour>
      <point x="194.814" y="18.56" type="curve"/>
      <point x="114.78" y="18.56"/>
      <point x="66.732" y="111.26"/>
      <point x="66.732" y="253.7" type="curve" smooth="yes"/>
      <point x="66.732" y="393.7"/>
      <point x="114.78" y="489.12"/>
      <point x="194.814" y="489.12" type="curve" smooth="yes"/>
      <point x="274.848" y="489.12"/>
      <point x="322.896" y="393.7"/>
      <point x="322.896" y="253.7" type="curve" smooth="yes"/>
      <point x="322.896" y="110.4"/>
      <point x="274.848" y="18.56"/>
    </contour>
  </outline>
</glyph>
<glyph name="Oogonek" format="2">
  <advance width="516.744"/>
  <unicode hex="01EA"/>
  <outline>
    <contour>
      <point x="257.872" y="20.84" type="curve" smooth="yes"/>
      <point x="148.228" y="20.84"/>
      <point x="69.076" y="150.42"/>
      <point x="69.076" y="355.0" type="curve" smooth="yes"/>
      <point x="69.076" y="559.58"/>
      <point x="148.228" y="689.16"/>
      <point x="257.872" y="689.16" type="curve" smooth="yes"/>
      <point x="368.658" y="689.16"/>
      <point x="447.668" y="559.58"/>
      <point x="447.668" y="355.0" type="curve" smooth="yes"/>
      <point x="447.668" y="150.42"/>
      <point x="368.658" y="20.84"/>
    </contour>
    <contour>
      <point x="339.382" y="22.4" type="curve"/>
      <point x="300.694" y="-14.579999999999998"/>
      <point x="263.83" y="-54.72"/>
      <point x="263.83" y="-115.78" type="curve" smooth="yes"/>
      <point x="248.767548053194" y="-172.3844590028714"/>
      <point x="256.238" y="-211.86685106382942"/>
      <point x="283.46" y="-221.52" type="curve" smooth="yes"/>
      <point x="306.47" y="-229.073259259266"/>
      <point x="331.22" y="-214.5"/>
      <point x="354.764" y="-187.84" type="curve"/>
      <point x="362.64" y="-187.84"/>
      <point x="356.694" y="-167.98"/>
      <point x="360.61" y="-164.2" type="curve"/>
      <point x="349.06600000000003" y="-183.98"/>
      <point x="334.29" y="-198.52"/>
      <point x="316.194" y="-198.52" type="curve" smooth="yes"/>
      <point x="296.326" y="-200.9"/>
      <point x="278.492" y="-183.94"/>
      <point x="274.554" y="-148.68" type="curve" smooth="yes"/>
      <point x="270.352" y="-86.76"/>
      <point x="298.858" y="-51.699034482762"/>
      <point x="354.784" y="14.679999999999996" type="curve" smooth="yes"/>
      <point x="404.938" y="77.1375555555556"/>
      <point x="440.328947401938" y="178.464528243531"/>
      <point x="461.416" y="311.6" type="curve" smooth="yes"/>
      <point x="478.11352746683997" y="508.294842273566"/>
      <point x="410.166" y="651.253736842106"/>
      <point x="310.716" y="668.9" type="curve" smooth="yes"/>
      <point x="212.046" y="699.28"/>
      <point x="113.538" y="592.72"/>
      <point x="84.322" y="406.1" type="curve" smooth="yes"/>
      <point x="55.106" y="220.34"/>
      <point x="106.578" y="71.48"/>
      <point x="205.248" y="41.1" type="curve" smooth="yes"/>
      <point x="224.124" y="10.860000000000003"/>
      <point x="265.628" y="-5.7"/>
      <point x="311.302" y="2.9" type="curve"/>
      <point x="321.51" y="2.9"/>
      <point x="333.127066811122" y="20.0181706220006"/>
    </contour>
  </outline>
</glyph>
<glyph name="ring" format="2">
  <advance width="341.6"/>
  <unicode hex="02DA"/>
  <anchor x="170.8" y="526.0" name="_top"/>
  <outline>
    <contour>
      <point x="129.226" y="677.42" type="curve" smooth="yes"/>
      <point x="129.226" y="721.96"/>
      <point x="147.962" y="743.68"/>
      <point x="170.8" y="743.68" type="curve" smooth="yes"/>
      <point x="194.538" y="743.68"/>
      <point x="213.274" y="721.96"/>
      <point x="213.274" y="677.42" type="curve" smooth="yes"/>
      <point x="213.274" y="632.88"/>
      <point x="194.538" y="611.16"/>
      <point x="170.8" y="611.16" type="curve" smooth="yes"/>
      <point x="147.962" y="611.16"/>
      <point x="129.226" y="632.88"/>
    </contour>
    <contour>
      <point x="242.368" y="677.42" type="curve" smooth="yes"/>
      <point x="242.368" y="735.98"/>
      <point x="210.64600000000002" y="769.4"/>
      <point x="170.8" y="769.4" type="curve" smooth="yes"/>
      <point x="131.854" y="769.4"/>
      <point x="100.132" y="735.98"/>
      <point x="100.132" y="677.42" type="curve" smooth="yes"/>
      <point x="100.132" y="618.86"/>
      <point x="132.63400000000001" y="585.44"/>
      <point x="170.8" y="585.44" type="curve" smooth="yes"/>
      <point x="209.866" y="585.44"/>
      <point x="242.368" y="618.86"/>
    </contour>
  </outline>
</glyph>
<glyph name="tilde" format="2">
  <advance width="341.798"/>
  <unicode hex="02DC"/>
  <anchor x="170.8" y="516.0" name="_top"/>
  <outline>
    <contour>
      <point x="215.538" y="615.18" type="curve" smooth="yes"/>
      <point x="249.722" y="615.18"/>
      <point x="266.348" y="651.16"/>
      <point x="278.508" y="716.82" type="curve"/>
      <point x="259.026" y="725.96" type="line"/>
      <point x="249.768" y="679.96"/>
      <point x="241.51" y="652.54"/>
      <point x="222.39" y="652.54" type="curve" smooth="yes"/>
      <point x="192.35" y="652.54"/>
      <point x="172.9" y="729.1"/>
      <point x="125.708" y="729.1" type="curve" smooth="yes"/>
      <point x="91.14" y="729.1"/>
      <point x="73.338" y="694.12"/>
      <point x="64.696" y="625.6" type="curve"/>
      <point x="84.376" y="615.74" type="line"/>
      <point x="90.314" y="664.74"/>
      <point x="98.396" y="691.88"/>
      <point x="118.714" y="691.88" type="curve" smooth="yes"/>
      <point x="147.192" y="691.88"/>
      <point x="164.302" y="615.18"/>
    </contour>
  </outline>
</glyph>
<glyph name="Delta" format="2">
  <advance width="482.084"/>
  <unicode hex="0394"/>
  <outline>
    <contour>
      <point x="24.2" y="0.0" type="line"/>
      <point x="458.082" y="0.0" type="line"/>
      <point x="458.082" y="34.0" type="line"/>
      <point x="260.356" y="710.0" type="line"/>
      <point x="221.728" y="710.0" type="line"/>
      <point x="24.2" y="34.0" type="line"/>
    </contour>
    <contour>
      <point x="424.43399999999997" y="25.5" type="line"/>
      <point x="436.496" y="39.0" type="line"/>
      <point x="45.3" y="39.0" type="line"/>
      <point x="47.114" y="20.2" type="line"/>
      <point x="243.488" y="696.42" type="line"/>
      <point x="229.358" y="697.28" type="line"/>
    </contour>
  </outline>
</glyph>
<glyph name="ruble" format="2">
  <advance width="383.678"/>
  <unicode hex="20BD"/>
  <outline>
    <contour>
      <point x="25.444" y="375.0" type="line"/>
      <point x="209.162" y="375.0" type="line" smooth="yes"/>
      <point x="301.53" y="375.0"/>
      <point x="336.626" y="435.72"/>
      <point x="336.626" y="529.02" type="curve" smooth="yes"/>
      <point x="336.626" y="624.3"/>
      <point x="301.452" y="679.72"/>
      <point x="213.064" y="679.72" type="curve" smooth="yes"/>
      <point x="125.436" y="679.72" type="line"/>
      <point x="125.436" y="40.0" type="line" smooth="yes"/>
      <point x="125.436" y="33.0"/>
      <point x="155.156" y="30.0"/>
      <point x="179.038" y="30.0" type="curve" smooth="yes"/>
      <point x="194.706" y="30.0" type="line"/>
      <point x="194.706" y="0.0" type="line"/>
      <point x="25.444" y="0.0" type="line"/>
      <point x="25.444" y="30.0" type="line"/>
      <point x="32.842" y="30.0" type="line" smooth="yes"/>
      <point x="64.916" y="30.0"/>
      <point x="90.138" y="37.0"/>
      <point x="90.138" y="66.0" type="curve" smooth="yes"/>
      <point x="90.138" y="644.0" type="line" smooth="yes"/>
      <point x="90.138" y="673.0"/>
      <point x="64.696" y="680.0"/>
      <point x="32.842" y="680.0" type="curve" smooth="yes"/>
      <point x="25.444" y="680.0" type="line"/>
      <point x="25.444" y="710.0" type="line"/>
      <point x="213.284" y="710.0" type="line" smooth="yes"/>
      <point x="323.972" y="710.0"/>
      <point x="374.244" y="640.44"/>
      <point x="374.244" y="530.02" type="curve" smooth="yes"/>
      <point x="374.244" y="420.58"/>
      <point x="320.652" y="344.72"/>
      <point x="209.382" y="344.72" type="curve" smooth="yes"/>
      <point x="25.444" y="344.72" type="line"/>
    </contour>
    <contour>
      <point x="262.996" y="187.14" type="line"/>
      <point x="25.444" y="187.14" type="line"/>
      <point x="25.444" y="217.42" type="line"/>
      <point x="262.996" y="217.42" type="line"/>
    </contour>
  </outline>
</glyph>
<glyph name="litre" format="2">
  <advance width="357.498"/>
  <unicode hex="2113"/>
  <outline>
    <contour>
      <point x="155.528" y="238.0" type="curve" smooth="yes"/>
      <point x="155.528" y="579.8385632458234"/>
      <point x="187.41922641509433" y="681.12"/>
      <point x="233.538" y="681.12" type="curve" smooth="yes"/>
      <point x="264.3624705882353" y="681.12"/>
      <point x="273.636" y="634.24"/>
      <point x="273.636" y="563.82" type="curve" smooth="yes"/>
      <point x="273.636" y="391.72"/>
      <point x="179.20117884994102" y="284.5402302869652"/>
      <point x="39.23" y="219.4" type="curve"/>
      <point x="44.53" y="192.26" type="line"/>
      <point x="191.08801664276615" y="257.1046514446464"/>
      <point x="304.722" y="396.68"/>
      <point x="304.722" y="563.82" type="curve" smooth="yes"/>
      <point x="304.722" y="640.38"/>
      <point x="285.03" y="711.4"/>
      <point x="234.44" y="711.4" type="curve" smooth="yes"/>
      <point x="164.97" y="711.4"/>
      <point x="119.978" y="580.9834406779661"/>
      <point x="119.978" y="238.0" type="curve" smooth="yes"/>
      <point x="119.978" y="54.58"/>
      <point x="154.844" y="-10.0"/>
      <point x="213.438" y="-10.0" type="curve" smooth="yes"/>
      <point x="264.566" y="-10.0"/>
      <point x="294.99" y="59.0"/>
      <point x="311.67" y="130.0" type="curve"/>
      <point x="295.166" y="144.58" type="line"/>
      <point x="280.762" y="89.06"/>
      <point x="256.88" y="20.28"/>
      <point x="216.022" y="20.28" type="curve" smooth="yes"/>
      <point x="183.476" y="20.28"/>
      <point x="155.528" y="57.724738461538465"/>
    </contour>
  </outline>
</glyph>
<glyph name="servicemark" format="2">
  <advance width="561.546"/>
  <unicode hex="2120"/>
  <outline>
    <contour>
      <point x="255.154" y="395.0" type="line"/>
      <point x="327.49" y="395.0" type="line"/>
      <point x="327.49" y="418.3" type="line"/>
      <point x="324.83" y="418.3" type="line" smooth="yes"/>
      <point x="318.232" y="418.3"/>
      <point x="303.752" y="421.3"/>
      <point x="303.752" y="423.3" type="curve" smooth="yes"/>
      <point x="303.752" y="702.0" type="line"/>
      <point x="301.19" y="701.0" type="line"/>
      <point x="371.702" y="394.0" type="line"/>
      <point x="392.88" y="394.0" type="line"/>
      <point x="465.272" y="701.0" type="line"/>
      <point x="462.688" y="701.0" type="line"/>
      <point x="462.688" y="423.3" type="line" smooth="yes"/>
      <point x="462.688" y="421.3"/>
      <point x="451.01" y="418.3"/>
      <point x="442.632" y="418.3" type="curve" smooth="yes"/>
      <point x="439.674" y="418.3" type="line"/>
      <point x="439.674" y="395.0" type="line"/>
      <point x="520.446" y="395.0" type="line"/>
      <point x="520.446" y="418.3" type="line"/>
      <point x="515.444" y="418.3" type="line" smooth="yes"/>
      <point x="500.886" y="418.3"/>
      <point x="490.606" y="422.3"/>
      <point x="490.606" y="435.3" type="curve" smooth="yes"/>
      <point x="490.606" y="670.7" type="line" smooth="yes"/>
      <point x="490.606" y="684.7"/>
      <point x="500.886" y="686.7"/>
      <point x="515.444" y="686.7" type="curve" smooth="yes"/>
      <point x="520.446" y="686.7" type="line"/>
      <point x="520.446" y="710.0" type="line"/>
      <point x="447.514" y="710.0" type="line"/>
      <point x="384.138" y="435.0" type="line"/>
      <point x="388.36" y="434.0" type="line"/>
      <point x="328.944" y="710.0" type="line"/>
      <point x="255.154" y="710.0" type="line"/>
      <point x="255.154" y="686.7" type="line"/>
      <point x="259.156" y="686.7" type="line" smooth="yes"/>
      <point x="273.614" y="686.7"/>
      <point x="284.994" y="684.7"/>
      <point x="284.994" y="670.7" type="curve" smooth="yes"/>
      <point x="284.994" y="435.3" type="line" smooth="yes"/>
      <point x="284.994" y="422.3"/>
      <point x="273.614" y="418.3"/>
      <point x="259.156" y="418.3" type="curve"/>
      <point x="255.154" y="418.3" type="line"/>
    </contour>
    <contour>
      <point x="144.4" y="412.44" type="curve" smooth="yes"/>
      <point x="107.818" y="412.44"/>
      <point x="80.716" y="448.86"/>
      <point x="69.116" y="495.72" type="curve"/>
      <point x="49.808" y="495.72" type="line"/>
      <point x="49.808" y="391.0" type="line"/>
      <point x="65.224" y="391.0" type="line"/>
      <point x="70.424" y="472.44" type="line"/>
      <point x="63.092" y="478.46"/>
      <point x="66.652" y="454.66"/>
      <point x="55.186" y="484.76" type="curve"/>
      <point x="71.92" y="417.0"/>
      <point x="106.18" y="386.0"/>
      <point x="144.862" y="386.0" type="curve" smooth="yes"/>
      <point x="181.586" y="386.0"/>
      <point x="217.166" y="415.7"/>
      <point x="217.166" y="482.7" type="curve" smooth="yes"/>
      <point x="217.166" y="529.96"/>
      <point x="191.548" y="557.68"/>
      <point x="146.886" y="574.82" type="curve" smooth="yes"/>
      <point x="111.382" y="588.1"/>
      <point x="82.266" y="598.26"/>
      <point x="82.266" y="644.86" type="curve" smooth="yes"/>
      <point x="82.266" y="674.28"/>
      <point x="98.144" y="696.14"/>
      <point x="125.17" y="696.14" type="curve" smooth="yes"/>
      <point x="155.528" y="696.14"/>
      <point x="173.11" y="668.84"/>
      <point x="185.412" y="627.28" type="curve"/>
      <point x="204.082" y="627.28" type="line"/>
      <point x="204.082" y="716.0" type="line"/>
      <point x="189.524" y="716.0" type="line"/>
      <point x="184.566" y="645.56" type="line"/>
      <point x="189.48" y="639.54"/>
      <point x="191.866" y="640.94"/>
      <point x="196.0" y="641.8" type="curve"/>
      <point x="182.466" y="695.84"/>
      <point x="159.738" y="720.0"/>
      <point x="125.224" y="720.0" type="curve" smooth="yes"/>
      <point x="87.566" y="720.0"/>
      <point x="59.22" y="688.58"/>
      <point x="59.22" y="637.88" type="curve" smooth="yes"/>
      <point x="59.22" y="576.18"/>
      <point x="94.02" y="557.18"/>
      <point x="129.062" y="543.18" type="curve" smooth="yes"/>
      <point x="175.22" y="525.18"/>
      <point x="192.9" y="511.32"/>
      <point x="192.9" y="473.16" type="curve" smooth="yes"/>
      <point x="192.9" y="434.16"/>
      <point x="171.624" y="412.44"/>
    </contour>
  </outline>
</glyph>
<glyph name="arrowleft" format="2">
  <advance width="505.9"/>
  <unicode hex="2190"/>
  <outline>
    <contour>
      <point x="255.1" y="560.0" type="line"/>
      <point x="37.9" y="360.0" type="line"/>
      <point x="37.9" y="346.0" type="line"/>
      <point x="255.1" y="146.0" type="line"/>
      <point x="262.4" y="159.0" type="line"/>
      <point x="141.2" y="335.0" type="line"/>
      <point x="468.9" y="335.0" type="line"/>
      <point x="468.9" y="371.0" type="line"/>
      <point x="141.2" y="371.0" type="line"/>
      <point x="262.4" y="547.0" type="line"/>
    </contour>
  </outline>
</glyph>
<glyph name="radical" format="2">
  <advance width="401.478"/>
  <unicode hex="221A"/>
  <outline>
    <contour>
      <point x="40.21" y="328.56" type="line"/>
      <point x="126.272" y="328.56" type="line"/>
      <point x="99.772" y="346.74" type="line"/>
      <point x="190.81" y="0.0" type="line"/>
      <point x="215.836" y="0.0" type="line"/>
      <point x="220.4" y="29.240000000000002" type="line"/>
      <point x="133.904" y="359.68" type="line"/>
      <point x="40.21" y="359.68" type="line"/>
    </contour>
    <contour>
      <point x="357.904" y="710.0" type="line"/>
      <point x="200.114" y="0.0" type="line"/>
      <point x="223.214" y="0.0" type="line"/>
      <point x="381.886" y="710.0" type="line"/>
    </contour>
  </outline>
</glyph>
<glyph name="infinity" format="2">
  <advance width="531.2"/>
  <unicode hex="221E"/>
  <outline>
    <contour>
      <point x="148.6" y="154.0" type="curve" smooth="yes"/>
      <point x="82.21030057803468" y="154.0"/>
      <point x="33.8" y="236.0"/>
      <point x="33.8" y="353.0" type="curve" smooth="yes"/>
      <point x="33.8" y="471.0"/>
      <point x="84.444" y="556.0"/>
      <point x="149.69" y="556.0" type="curve" smooth="yes"/>
      <point x="222.764" y="556.0"/>
      <point x="251.77937701714038" y="464.2609598109129"/>
      <point x="277.378" y="380.0" type="curve" smooth="yes"/>
      <point x="311.89" y="266.22"/>
      <point x="336.806" y="194.46"/>
      <point x="392.176" y="194.46" type="curve" smooth="yes"/>
      <point x="442.676" y="194.46"/>
      <point x="475.696" y="260.22"/>
      <point x="475.696" y="360.0" type="curve" smooth="yes"/>
      <point x="475.696" y="454.92"/>
      <point x="441.138" y="515.82"/>
      <point x="383.82" y="515.82" type="curve" smooth="yes"/>
      <point x="326.546" y="515.82"/>
      <point x="292.4642935971932" y="449.3338242824884"/>
      <point x="273.604" y="360.4" type="curve"/>
      <point x="260.202" y="361.4" type="line"/>
      <point x="274.70526413748735" y="470.0038307196587"/>
      <point x="319.3" y="556.0"/>
      <point x="384.062" y="556.0" type="curve" smooth="yes"/>
      <point x="450.704" y="556.0"/>
      <point x="497.4" y="474.0"/>
      <point x="497.4" y="357.0" type="curve" smooth="yes"/>
      <point x="497.4" y="239.0"/>
      <point x="447.734" y="154.0"/>
      <point x="383.928" y="154.0" type="curve" smooth="yes"/>
      <point x="312.724" y="154.0"/>
      <point x="279.32" y="237.72"/>
      <point x="254.02" y="332.0" type="curve" smooth="yes"/>
      <point x="226.6810273889022" y="442.77437632350694"/>
      <point x="196.08415894039734" y="515.54"/>
      <point x="141.276" y="515.54" type="curve" smooth="yes"/>
      <point x="89.26545132743362" y="515.54"/>
      <point x="55.504" y="450.64"/>
      <point x="55.504" y="350.0" type="curve" smooth="yes"/>
      <point x="55.504" y="255.08"/>
      <point x="91.06137142857143" y="194.18"/>
      <point x="148.6" y="194.18" type="curve" smooth="yes"/>
      <point x="207.12138775510203" y="194.18"/>
      <point x="239.44228898958775" y="260.6605604646551"/>
      <point x="257.496" y="349.6" type="curve"/>
      <point x="270.196" y="348.6" type="line"/>
      <point x="256.4963115344054" y="240.00099124583525"/>
      <point x="213.44192857142858" y="154.0"/>
    </contour>
  </outline>
</glyph>
<glyph name="Pcircle" format="2">
  <advance width="575.62"/>
  <unicode hex="24C5"/>
  <outline>
    <contour>
      <point x="52.602" y="355.0" type="curve" smooth="yes"/>
      <point x="52.602" y="554.44"/>
      <point x="151.382" y="707.58"/>
      <point x="287.7" y="707.58" type="curve" smooth="yes"/>
      <point x="424.01800000000003" y="707.58"/>
      <point x="523.018" y="554.44"/>
      <point x="523.018" y="355.0" type="curve" smooth="yes"/>
      <point x="523.018" y="155.56"/>
      <point x="424.01800000000003" y="2.42"/>
      <point x="287.7" y="2.42" type="curve" smooth="yes"/>
      <point x="151.382" y="2.42"/>
      <point x="52.602" y="155.56"/>
    </contour>
    <contour>
      <point x="27.4" y="355.0" type="curve" smooth="yes"/>
      <point x="27.4" y="138.0"/>
      <point x="140.2" y="-28.0"/>
      <point x="287.7" y="-28.0" type="curve" smooth="yes"/>
      <point x="435.222" y="-28.0"/>
      <point x="548.22" y="138.0"/>
      <point x="548.22" y="355.0" type="curve" smooth="yes"/>
      <point x="548.22" y="572.0"/>
      <point x="435.222" y="738.0"/>
      <point x="287.7" y="738.0" type="curve" smooth="yes"/>
      <point x="140.2" y="738.0"/>
      <point x="27.4" y="572.0"/>
    </contour>
    <contour>
      <point x="185.444" y="153.0" type="line"/>
      <point x="302.566" y="153.0" type="line"/>
      <point x="302.566" y="180.0" type="line"/>
      <point x="286.37" y="180.0" type="line" smooth="yes"/>
      <point x="272.968" y="180.0"/>
      <point x="256.068" y="181.0"/>
      <point x="256.068" y="185.0" type="curve" smooth="yes"/>
      <point x="256.068" y="309.72" type="line"/>
      <point x="307.48" y="309.72" type="line" smooth="yes"/>
      <point x="369.406" y="309.72"/>
      <point x="413.014" y="358.72636363637"/>
      <point x="413.014" y="436.86" type="curve" smooth="yes"/>
      <point x="413.014" y="512.866608"/>
      <point x="372.606" y="557.0"/>
      <point x="309.58" y="557.0" type="curve" smooth="yes"/>
      <point x="185.444" y="557.0" type="line"/>
      <point x="185.444" y="530.0" type="line"/>
      <point x="189.644" y="530.0" type="line" smooth="yes"/>
      <point x="209.346" y="530.0"/>
      <point x="223.344" y="526.0"/>
      <point x="223.344" y="510.0" type="curve" smooth="yes"/>
      <point x="223.344" y="200.0" type="line" smooth="yes"/>
      <point x="223.344" y="184.0"/>
      <point x="209.346" y="180.0"/>
      <point x="189.644" y="180.0" type="curve" smooth="yes"/>
      <point x="185.444" y="180.0" type="line"/>
    </contour>
    <contour>
      <point x="309.36" y="527.0" type="line" smooth="yes"/>
      <point x="355.65" y="527.0"/>
      <point x="378.388" y="501.00191578947"/>
      <point x="378.388" y="436.86" type="curve" smooth="yes"/>
      <point x="378.388" y="372.715333333338"/>
      <point x="355.65" y="339.72"/>
      <point x="307.458" y="339.72" type="curve" smooth="yes"/>
      <point x="256.068" y="339.72" type="line"/>
      <point x="256.068" y="527.0" type="line"/>
    </contour>
  </outline>
</glyph>
<glyph name="uni25B8" format="2">
  <advance width="392.1"/>
  <unicode hex="25B8"/>
  <outline>
    <contour>
      <point x="88.6" y="10.0" type="line"/>
      <point x="344.6" y="277.0" type="line"/>
      <point x="88.6" y="545.0" type="line"/>
    </contour>
  </outline>
</glyph>
<glyph name="acute.uc" format="2">
  <advance width="342.5"/>
  <anchor x="138.782" y="727.0" name="_top"/>
  <outline>
    <contour>
      <point x="177.504" y="868.56" type="curve" smooth="yes"/>
      <point x="122.222" y="779.86" type="line"/>
      <point x="122.222" y="766.0" type="line"/>
      <point x="132.184" y="766.0" type="line"/>
      <point x="202.31" y="834.22" type="line" smooth="yes"/>
      <point x="222.256" y="853.08"/>
      <point x="234.142" y="865.6254328358209"/>
      <point x="234.142" y="883.02" type="curve" smooth="yes"/>
      <point x="234.142" y="897.0"/>
      <point x="226.89600000000002" y="907.4"/>
      <point x="214.768" y="907.4" type="curve" smooth="yes"/>
      <point x="200.946" y="907.4"/>
      <point x="192.622" y="893.26"/>
    </contour>
  </outline>
</glyph>
<glyph name="caron.alt" format="2">
  <advance width="342.5"/>
  <anchor x="58.462" y="574.0" name="_right"/>
  <outline>
    <contour>
      <point x="86.026" y="526.0" type="line"/>
      <point x="68.5" y="526.0" type="line"/>
      <point x="68.5" y="536.0" type="line"/>
      <point x="81.1" y="710.0" type="line"/>
      <point x="121.148" y="710.0" type="line"/>
    </contour>
  </outline>
</glyph>
<glyph name="currency.proportional" format="2">
  <advance width="427.096"/>
  <outline>
    <contour>
      <point x="325.576" y="375.58" type="curve" smooth="yes"/>
      <point x="325.576" y="276.28"/>
      <point x="280.586720930238" y="207.68"/>
      <point x="213.548" y="207.68" type="curve" smooth="yes"/>
      <point x="147.431279069762" y="207.68"/>
      <point x="102.42" y="277.28"/>
      <point x="102.42" y="375.58" type="curve" smooth="yes"/>
      <point x="102.42" y="474.88"/>
      <point x="147.431279069762" y="544.48"/>
      <point x="213.548" y="544.48" type="curve" smooth="yes"/>
      <point x="280.586720930238" y="544.48"/>
      <point x="325.576" y="474.88"/>
    </contour>
    <contour>
      <point x="73.414" y="375.58" type="curve" smooth="yes"/>
      <point x="73.414" y="257.28"/>
      <point x="136.135075471704" y="171.98"/>
      <point x="213.548" y="171.98" type="curve" smooth="yes"/>
      <point x="291.860924528296" y="171.98"/>
      <point x="354.582" y="257.28"/>
      <point x="354.582" y="375.58" type="curve" smooth="yes"/>
      <point x="354.582" y="494.88"/>
      <point x="291.860924528296" y="580.18"/>
      <point x="213.548" y="580.18" type="curve" smooth="yes"/>
      <point x="136.135075471704" y="580.18"/>
      <point x="73.414" y="494.88"/>
    </contour>
    <contour>
      <point x="45.156" y="597.9" type="line"/>
      <point x="114.372" y="495.46" type="line"/>
      <point x="136.624" y="518.26" type="line"/>
      <point x="63.838" y="625.46" type="line"/>
    </contour>
    <contour>
      <point x="382.84" y="597.9" type="line"/>
      <point x="364.158" y="625.46" type="line"/>
      <point x="291.372" y="518.26" type="line"/>
      <point x="312.724" y="495.46" type="line"/>
    </contour>
    <contour>
      <point x="45.156" y="153.4" type="line"/>
      <point x="63.838" y="125.84" type="line"/>
      <point x="137.548" y="233.88" type="line"/>
      <point x="114.372" y="255.84" type="line"/>
    </contour>
    <contour>
      <point x="382.84" y="153.4" type="line"/>
      <point x="312.724" y="255.84" type="line"/>
      <point x="290.448" y="233.88" type="line"/>
      <point x="364.158" y="125.84" type="line"/>
    </contour>
  </outline>
</glyph>
<glyph name="dollar.proportional" format="2">
  <advance width="415.848"/>
  <outline>
    <contour>
      <point x="199.21" y="787.42" type="line"/>
      <point x="199.21" y="687.72" type="line"/>
      <point x="199.21" y="678.6" type="line"/>
      <point x="199.21" y="27.4" type="line"/>
      <point x="199.21" y="21.7" type="line"/>
      <point x="199.21" y="-120.0" type="line"/>
      <point x="224.212" y="-120.0" type="line"/>
      <point x="224.212" y="18.56" type="line"/>
      <point x="224.212" y="26.26" type="line"/>
      <point x="224.212" y="676.3" type="line"/>
      <point x="224.212" y="684.72" type="line"/>
      <point x="224.212" y="787.42" type="line"/>
    </contour>
    <contour>
      <point x="215.23" y="39.4" type="curve" smooth="yes"/>
      <point x="150.776" y="39.4"/>
      <point x="88.336" y="74.46"/>
      <point x="58.452" y="132.7" type="curve"/>
      <point x="53.172" y="112.16"/>
      <point x="65.752" y="99.8"/>
      <point x="78.44200000000001" y="85.76" type="curve"/>
      <point x="78.44200000000001" y="187.28" type="line"/>
      <point x="39.472" y="187.28" type="line"/>
      <point x="39.472" y="97.0" type="line"/>
      <point x="71.16" y="55.02"/>
      <point x="138.01" y="8.56"/>
      <point x="215.714" y="8.56" type="curve" smooth="yes"/>
      <point x="305.754" y="8.56"/>
      <point x="377.3" y="73.68"/>
      <point x="377.3" y="196.54" type="curve" smooth="yes"/>
      <point x="377.3" y="319.24"/>
      <point x="298.52" y="355.66"/>
      <point x="232.052" y="381.36" type="curve" smooth="yes"/>
      <point x="159.276" y="408.64"/>
      <point x="89.952" y="429.8"/>
      <point x="89.952" y="534.38" type="curve" smooth="yes"/>
      <point x="89.952" y="618.86"/>
      <point x="135.538" y="667.16"/>
      <point x="213.592" y="667.16" type="curve" smooth="yes"/>
      <point x="274.57" y="667.16"/>
      <point x="317.242" y="639.44"/>
      <point x="338.858" y="601.02" type="curve"/>
      <point x="346.062" y="616.28"/>
      <point x="331.79" y="644.44"/>
      <point x="320.672" y="651.86" type="curve"/>
      <point x="320.672" y="548.62" type="line"/>
      <point x="360.718" y="548.62" type="line"/>
      <point x="360.718" y="631.7" type="line"/>
      <point x="340.148" y="660.6"/>
      <point x="284.666" y="698.0"/>
      <point x="213.152" y="698.0" type="curve" smooth="yes"/>
      <point x="119.572" y="698.0"/>
      <point x="59.648" y="633.3"/>
      <point x="59.648" y="528.72" type="curve" smooth="yes"/>
      <point x="59.648" y="407.58"/>
      <point x="134.162" y="374.74"/>
      <point x="198.99" y="348.62" type="curve" smooth="yes"/>
      <point x="272.624" y="320.2"/>
      <point x="347.456" y="301.48"/>
      <point x="347.456" y="187.16" type="curve" smooth="yes"/>
      <point x="347.456" y="83.86"/>
      <point x="291.788" y="39.4"/>
    </contour>
  </outline>
</glyph>
<glyph name="eight.den" format="2">
  <advance width="221.244"/>
  <outline>
    <contour>
      <point x="110.622" y="186.42" type="curve" smooth="yes"/>
      <point x="61.352" y="186.42"/>
      <point x="24.606" y="152.28"/>
      <point x="24.606" y="95.72" type="curve" smooth="yes"/>
      <point x="24.606" y="35.14"/>
      <point x="59.55" y="-6.0"/>
      <point x="110.622" y="-6.0" type="curve" smooth="yes"/>
      <point x="161.19" y="-6.0"/>
      <point x="196.13400000000001" y="35.14"/>
      <point x="196.13400000000001" y="95.72" type="curve" smooth="yes"/>
      <point x="196.13400000000001" y="152.28"/>
      <point x="159.87" y="186.42"/>
    </contour>
    <contour>
      <point x="110.622" y="168.0" type="curve" smooth="yes"/>
      <point x="140.518" y="168.0"/>
      <point x="160.914" y="143.1343125"/>
      <point x="160.914" y="96.14" type="curve" smooth="yes"/>
      <point x="160.914" y="49.719096774193545"/>
      <point x="139.66" y="21.58"/>
      <point x="110.622" y="21.58" type="curve" smooth="yes"/>
      <point x="81.584" y="21.58"/>
      <point x="59.628" y="49.719096774193545"/>
      <point x="59.628" y="96.14" type="curve" smooth="yes"/>
      <point x="59.628" y="143.1343125"/>
      <point x="80.002" y="168.0"/>
    </contour>
    <contour>
      <point x="110.622" y="346.0" type="curve" smooth="yes"/>
      <point x="66.872" y="346.0"/>
      <point x="35.59" y="310.0"/>
      <point x="35.59" y="261.44" type="curve" smooth="yes"/>
      <point x="35.59" y="209.44"/>
      <point x="66.872" y="177.58"/>
      <point x="110.622" y="177.58" type="curve" smooth="yes"/>
      <point x="153.648" y="177.58"/>
      <point x="185.852" y="209.44"/>
      <point x="185.852" y="261.44" type="curve" smooth="yes"/>
      <point x="185.852" y="310.0"/>
      <point x="153.648" y="346.0"/>
    </contour>
    <contour>
      <point x="110.622" y="193.0" type="curve" smooth="yes"/>
      <point x="86.004" y="193.0"/>
      <point x="69.028" y="216.44592307692307"/>
      <point x="69.028" y="256.3" type="curve" smooth="yes"/>
      <point x="69.028" y="296.1361111111111"/>
      <point x="86.004" y="319.28"/>
      <point x="110.622" y="319.28" type="curve" smooth="yes"/>
      <point x="135.218" y="319.28"/>
      <point x="152.414" y="296.1361111111111"/>
      <point x="152.414" y="256.3" type="curve" smooth="yes"/>
      <point x="152.414" y="216.44592307692307"/>
      <point x="135.218" y="193.0"/>
    </contour>
  </outline>
</glyph>
<glyph name="f_i.alt" format="2">
  <advance width="447.8"/>
  <outline>
    <contour>
      <point x="19.0" y="518.0" type="line"/>
      <point x="19.0" y="486.0" type="line"/>
      <point x="287.7" y="486.0" type="line"/>
      <point x="287.7" y="518.0" type="line"/>
    </contour>
    <contour>
      <point x="208.7" y="724.0" type="curve" smooth="yes"/>
      <point x="230.8" y="724.0"/>
      <point x="245.5" y="717.0"/>
      <point x="253.0" y="713.0" type="curve"/>
      <point x="253.0" y="749.0" type="line"/>
      <point x="245.6" y="754.0"/>
      <point x="227.7" y="758.0"/>
      <point x="207.6" y="758.0" type="curve" smooth="yes"/>
      <point x="130.73101604278074" y="758.0"/>
      <point x="86.4" y="697.0"/>
      <point x="86.4" y="582.0" type="curve" smooth="yes"/>
      <point x="86.4" y="66.0" type="line" smooth="yes"/>
      <point x="86.4" y="37.0"/>
      <point x="62.2" y="30.0"/>
      <point x="23.2" y="30.0" type="curve" smooth="yes"/>
      <point x="19.0" y="30.0" type="line"/>
      <point x="19.0" y="0.0" type="line"/>
      <point x="219.2" y="0.0" type="line"/>
      <point x="219.2" y="30.0" type="line"/>
      <point x="215.0" y="30.0" type="line" smooth="yes"/>
      <point x="177.0" y="30.0"/>
      <point x="147.5" y="33.0"/>
      <point x="147.5" y="54.0" type="curve" smooth="yes"/>
      <point x="147.5" y="582.0" type="line" smooth="yes"/>
      <point x="147.5" y="683.0"/>
      <point x="162.35" y="724.0"/>
    </contour>
    <contour>
      <point x="346.7" y="642.0" type="curve" smooth="yes"/>
      <point x="370.9" y="642.0"/>
      <point x="388.8" y="665.0"/>
      <point x="388.8" y="703.0" type="curve" smooth="yes"/>
      <point x="388.8" y="740.0"/>
      <point x="370.9" y="763.0"/>
      <point x="346.7" y="763.0" type="curve" smooth="yes"/>
      <point x="322.5" y="763.0"/>
      <point x="304.5" y="740.0"/>
      <point x="304.5" y="703.0" type="curve" smooth="yes"/>
      <point x="304.5" y="665.0"/>
      <point x="322.5" y="642.0"/>
    </contour>
    <contour>
      <point x="432.0" y="0.0" type="line"/>
      <point x="432.0" y="30.0" type="line"/>
      <point x="430.0" y="30.0" type="line" smooth="yes"/>
      <point x="400.4" y="30.0"/>
      <point x="378.3" y="37.0"/>
      <point x="378.3" y="66.0" type="curve" smooth="yes"/>
      <point x="378.3" y="518.0" type="line"/>
      <point x="255.0" y="518.0" type="line"/>
      <point x="255.0" y="486.0" type="line"/>
      <point x="260.3" y="486.0" type="line" smooth="yes"/>
      <point x="293.0" y="486.0"/>
      <point x="317.2" y="472.0"/>
      <point x="317.2" y="443.0" type="curve" smooth="yes"/>
      <point x="317.2" y="66.0" type="line" smooth="yes"/>
      <point x="317.2" y="37.0"/>
      <point x="295.0" y="30.0"/>
      <point x="264.5" y="30.0" type="curve" smooth="yes"/>
      <point x="263.4" y="30.0" type="line"/>
      <point x="263.4" y="0.0" type="line"/>
    </contour>
  </outline>
</glyph>
<glyph name="f_l" format="2">
  <advance width="388.676"/>
  <outline>
    <contour>
      <point x="17.362000000000002" y="518.0" type="line"/>
      <point x="17.362000000000002" y="500.62" type="line"/>
      <point x="216.212" y="500.62" type="line"/>
      <point x="216.212" y="518.0" type="line"/>
    </contour>
    <contour>
      <point x="283.504" y="40.2" type="line" smooth="yes"/>
      <point x="283.504" y="19.8"/>
      <point x="262.086" y="15.38"/>
      <point x="229.736" y="15.38" type="curve" smooth="yes"/>
      <point x="227.934" y="15.38" type="line"/>
      <point x="227.934" y="0.0" type="line"/>
      <point x="372.018" y="0.0" type="line"/>
      <point x="372.018" y="15.38" type="line"/>
      <point x="370.018" y="15.38" type="line" smooth="yes"/>
      <point x="340.418" y="15.38"/>
      <point x="318.318" y="19.8"/>
      <point x="318.318" y="40.2" type="curve"/>
      <point x="318.318" y="750.0" type="line"/>
      <point x="240.73" y="750.0" type="line"/>
      <point x="283.504" y="724.18" type="line"/>
    </contour>
    <contour>
      <point x="189.35" y="0.0" type="line"/>
      <point x="189.35" y="15.38" type="line"/>
      <point x="181.094" y="15.38" type="line" smooth="yes"/>
      <point x="146.536" y="15.38"/>
      <point x="120.356" y="18.38"/>
      <point x="120.356" y="27.34" type="curve" smooth="yes"/>
      <point x="120.356" y="574.44" type="line" smooth="yes"/>
      <point x="120.356" y="703.22"/>
      <point x="158.618" y="740.34"/>
      <point x="215.738" y="740.34" type="curve" smooth="yes"/>
      <point x="247.0682" y="740.34"/>
      <point x="279.200358902242" y="730.957302283888"/>
      <point x="293.70799999999997" y="708.92" type="curve"/>
      <point x="305.164" y="726.86" type="line"/>
      <point x="291.586" y="741.3"/>
      <point x="257.899317073198" y="758.0"/>
      <point x="216.518" y="758.0" type="curve" smooth="yes"/>
      <point x="142.278" y="758.0"/>
      <point x="85.542" y="704.32"/>
      <point x="85.542" y="570.14" type="curve" smooth="yes"/>
      <point x="85.542" y="42.78" type="line" smooth="yes"/>
      <point x="85.542" y="20.66"/>
      <point x="63.3" y="15.38"/>
      <point x="27.96" y="15.38" type="curve" smooth="yes"/>
      <point x="20.56" y="15.38" type="line"/>
      <point x="20.56" y="0.0" type="line"/>
    </contour>
  </outline>
</glyph>
<glyph name="florin.proportional" format="2">
  <advance width="358.808"/>
  <outline>
    <contour>
      <point x="89.634" y="506.6" type="line"/>
      <point x="86.456" y="476.32" type="line"/>
      <point x="329.472" y="476.32" type="line"/>
      <point x="332.452" y="506.6" type="line"/>
    </contour>
    <contour>
      <point x="157.652" y="57.96" type="curve" smooth="yes"/>
      <point x="207.01" y="569.1" type="line" smooth="yes"/>
      <point x="218.312" y="684.52"/>
      <point x="249.922" y="723.82"/>
      <point x="301.456" y="723.82" type="curve" smooth="yes"/>
      <point x="324.898" y="723.82"/>
      <point x="345.416" y="713.82"/>
      <point x="367.614" y="701.82" type="curve"/>
      <point x="370.572" y="735.1" type="line"/>
      <point x="352.672" y="747.1"/>
      <point x="325.656" y="754.1"/>
      <point x="300.214" y="754.1" type="curve" smooth="yes"/>
      <point x="228.844" y="754.1"/>
      <point x="185.016" y="697.1"/>
      <point x="173.218" y="575.1" type="curve" smooth="yes"/>
      <point x="124.476" y="56.86" type="line" smooth="yes"/>
      <point x="105.554" y="-142.7"/>
      <point x="65.434" y="-205.72"/>
      <point x="12.899999999999999" y="-205.72" type="curve" smooth="yes"/>
      <point x="-14.358" y="-205.72"/>
      <point x="-37.172" y="-191.58"/>
      <point x="-49.882" y="-183.42" type="curve"/>
      <point x="-52.84" y="-216.7" type="line"/>
      <point x="-40.084" y="-226.42"/>
      <point x="-17.546" y="-236.0"/>
      <point x="13.34" y="-236.0" type="curve" smooth="yes"/>
      <point x="88.074" y="-236.0"/>
      <point x="137.794" y="-152.2"/>
    </contour>
  </outline>
</glyph>
<glyph name="g.alt" format="2">
  <advance width="398.006"/>
  <outline>
    <contour>
      <point x="308.162" y="21.9" type="line" smooth="yes"/>
      <point x="308.162" y="-147.2"/>
      <point x="259.762" y="-214.36"/>
      <point x="180.498" y="-214.36" type="curve" smooth="yes"/>
      <point x="126.314" y="-214.36"/>
      <point x="81.696" y="-183.1"/>
      <point x="61.444" y="-138.12" type="curve"/>
      <point x="61.0671762036314" y="-175.809872639742"/>
      <point x="72.218" y="-180.46"/>
      <point x="82.312" y="-180.74" type="curve"/>
      <point x="82.312" y="-89.08" type="line"/>
      <point x="42.342" y="-89.08" type="line"/>
      <point x="42.342" y="-156.48" type="line"/>
      <point x="63.74" y="-192.88"/>
      <point x="114.396" y="-232.44"/>
      <point x="180.498" y="-232.44" type="curve" smooth="yes"/>
      <point x="281.028" y="-232.44"/>
      <point x="342.976" y="-139.42"/>
      <point x="342.976" y="28.92" type="curve" smooth="yes"/>
      <point x="342.976" y="521.7" type="line"/>
      <point x="328.604" y="521.7" type="line"/>
      <point x="309.724" y="389.04" type="line"/>
      <point x="308.162" y="385.64" type="line"/>
    </contour>
    <contour>
      <point x="61.28" y="255.98" type="curve" smooth="yes"/>
      <point x="61.28" y="406.74"/>
      <point x="108.866" y="509.64"/>
      <point x="185.952" y="509.64" type="curve" smooth="yes"/>
      <point x="247.128" y="509.64"/>
      <point x="291.724" y="445.58"/>
      <point x="318.73" y="346.14" type="curve"/>
      <point x="330.54" y="355.28" type="line"/>
      <point x="297.168" y="463.1"/>
      <point x="253.99" y="528.0"/>
      <point x="185.072" y="528.0" type="curve" smooth="yes"/>
      <point x="91.382" y="528.0"/>
      <point x="24.124" y="416.42"/>
      <point x="24.124" y="255.98" type="curve" smooth="yes"/>
      <point x="24.124" y="97.54"/>
      <point x="86.95" y="-8.46"/>
      <point x="176.816" y="-8.46" type="curve" smooth="yes"/>
      <point x="250.23" y="-8.46"/>
      <point x="292.45" y="61.56"/>
      <point x="334.772" y="173.82" type="curve"/>
      <point x="324.062" y="185.1" type="line"/>
      <point x="289.624" y="82.08"/>
      <point x="243.632" y="9.9"/>
      <point x="180.576" y="9.9" type="curve" smooth="yes"/>
      <point x="105.512" y="9.9"/>
      <point x="61.28" y="105.64"/>
    </contour>
  </outline>
</glyph>
<glyph name="nine.den" format="2">
  <advance width="221.4"/>
  <outline>
    <contour>
      <point x="41.562" y="13.6" type="line"/>
      <point x="123.772" y="29.04"/>
      <point x="163.63" y="95.02"/>
      <point x="163.63" y="199.7" type="curve" smooth="yes"/>
      <point x="163.63" y="282.82"/>
      <point x="143.772" y="316.84"/>
      <point x="109.82" y="316.84" type="curve" smooth="yes"/>
      <point x="79.144" y="316.84"/>
      <point x="58.21" y="283.55556962025315"/>
      <point x="58.21" y="231.58" type="curve" smooth="yes"/>
      <point x="58.21" y="188.31329577464788"/>
      <point x="71.59758620689655" y="153.46"/>
      <point x="104.4" y="153.46" type="curve" smooth="yes"/>
      <point x="136.07470588235293" y="153.46"/>
      <point x="159.9884156256694" y="185.0377594706436"/>
      <point x="174.228" y="232.78" type="curve"/>
      <point x="179.286" y="206.32" type="line"/>
      <point x="169.786" y="166.74"/>
      <point x="140.374" y="123.3"/>
      <point x="99.736" y="123.3" type="curve" smooth="yes"/>
      <point x="52.018" y="123.3"/>
      <point x="22.99" y="166.74"/>
      <point x="22.99" y="231.3" type="curve" smooth="yes"/>
      <point x="22.99" y="297.14"/>
      <point x="59.792" y="346.14"/>
      <point x="109.6" y="346.14" type="curve" smooth="yes"/>
      <point x="163.004" y="346.14"/>
      <point x="199.112" y="295.84"/>
      <point x="199.112" y="199.56" type="curve" smooth="yes"/>
      <point x="199.112" y="85.4"/>
      <point x="144.466" y="0.58"/>
      <point x="44.662" y="-15.28" type="curve"/>
    </contour>
  </outline>
</glyph>
<glyph name="one.den" format="2">
  <advance width="222.378"/>
  <outline>
    <contour>
      <point x="133.538" y="50.88" type="curve" smooth="yes"/>
      <point x="133.538" y="341.0" type="line"/>
      <point x="112.656" y="341.0" type="line"/>
      <point x="98.956" y="313.0"/>
      <point x="74.096" y="299.0"/>
      <point x="32.6" y="298.0" type="curve"/>
      <point x="32.6" y="263.28" type="line"/>
      <point x="68.28998118944084" y="262.5599997080401"/>
      <point x="99.72366402553742" y="278.56269240774645"/>
      <point x="107.654" y="312.98" type="curve"/>
      <point x="107.654" y="319.98"/>
      <point x="106.356" y="316.98"/>
      <point x="101.056" y="306.98" type="curve"/>
      <point x="101.056" y="50.88" type="line" smooth="yes"/>
      <point x="101.056" y="32.88"/>
      <point x="84.45400000000001" y="28.88"/>
      <point x="60.254" y="28.88" type="curve" smooth="yes"/>
      <point x="39.0" y="28.88" type="line"/>
      <point x="39.0" y="0.0" type="line"/>
      <point x="193.494" y="0.0" type="line"/>
      <point x="193.494" y="28.88" type="line"/>
      <point x="176.738" y="28.88" type="line" smooth="yes"/>
      <point x="150.438" y="28.88"/>
      <point x="133.538" y="32.88"/>
    </contour>
  </outline>
</glyph>
<glyph name="ruble.proportional" format="2">
  <advance width="418.662"/>
  <outline>
    <contour>
      <point x="42.452" y="375.0" type="line"/>
      <point x="225.466" y="375.0" type="line" smooth="yes"/>
      <point x="319.44" y="375.0"/>
      <point x="355.724" y="435.58"/>
      <point x="355.724" y="529.72" type="curve" smooth="yes"/>
      <point x="355.724" y="625.0"/>
      <point x="319.362" y="679.3"/>
      <point x="228.864" y="679.3" type="curve" smooth="yes"/>
      <point x="142.642" y="679.3" type="line"/>
      <point x="142.642" y="42.24" type="line" smooth="yes"/>
      <point x="142.642" y="33.0"/>
      <point x="172.626" y="30.0"/>
      <point x="196.508" y="30.0" type="curve" smooth="yes"/>
      <point x="213.32" y="30.0" type="line"/>
      <point x="213.32" y="0.0" type="line"/>
      <point x="42.452" y="0.0" type="line"/>
      <point x="42.452" y="30.0" type="line"/>
      <point x="49.148" y="30.0" type="line" smooth="yes"/>
      <point x="81.924" y="30.0"/>
      <point x="107.146" y="37.0"/>
      <point x="107.146" y="66.0" type="curve" smooth="yes"/>
      <point x="107.146" y="644.0" type="line" smooth="yes"/>
      <point x="107.146" y="673.0"/>
      <point x="81.902" y="680.0"/>
      <point x="49.148" y="680.0" type="curve" smooth="yes"/>
      <point x="42.452" y="680.0" type="line"/>
      <point x="42.452" y="710.0" type="line"/>
      <point x="229.106" y="710.0" type="line" smooth="yes"/>
      <point x="341.662" y="710.0"/>
      <point x="393.342" y="641.56"/>
      <point x="393.342" y="530.72" type="curve" smooth="yes"/>
      <point x="393.342" y="420.02"/>
      <point x="338.342" y="344.72"/>
      <point x="225.906" y="344.72" type="curve" smooth="yes"/>
      <point x="42.452" y="344.72" type="line"/>
    </contour>
    <contour>
      <point x="282.534" y="187.14" type="line"/>
      <point x="42.452" y="187.14" type="line"/>
      <point x="42.452" y="217.42" type="line"/>
      <point x="282.534" y="217.42" type="line"/>
    </contour>
  </outline>
</glyph>
<glyph name="uni20AB.proportional" format="2">
  <advance width="392.444"/>
  <outline>
    <contour>
      <point x="65.48" y="250.56" type="curve" smooth="yes"/>
      <point x="65.48" y="392.7"/>
      <point x="106.26576119402" y="488.42"/>
      <point x="180.786" y="488.42" type="curve" smooth="yes"/>
      <point x="238.78321827411" y="488.42"/>
      <point x="277.718" y="427.08"/>
      <point x="301.744" y="327.38" type="curve"/>
      <point x="301.986" y="327.66"/>
      <point x="314.982" y="346.84"/>
      <point x="315.928" y="347.12" type="curve"/>
      <point x="284.48" y="459.94"/>
      <point x="247.028497854068" y="519.4"/>
      <point x="177.3" y="519.4" type="curve" smooth="yes"/>
      <point x="89.737296296302" y="519.4"/>
      <point x="28.324" y="408.98"/>
      <point x="28.324" y="250.56" type="curve" smooth="yes"/>
      <point x="28.324" y="93.28"/>
      <point x="84.833024390238" y="-11.0"/>
      <point x="169.042" y="-11.0" type="curve" smooth="yes"/>
      <point x="243.282" y="-11.0"/>
      <point x="282.918" y="60.32"/>
      <point x="320.28" y="169.98" type="curve"/>
      <point x="319.136" y="170.4"/>
      <point x="310.144" y="194.46"/>
      <point x="308.076" y="194.88" type="curve"/>
      <point x="276.476" y="93.74"/>
      <point x="236.830156862752" y="19.98"/>
      <point x="174.628" y="19.98" type="curve" smooth="yes"/>
      <point x="102.775650793648" y="19.98"/>
      <point x="65.48" y="109.12"/>
    </contour>
    <contour>
      <point x="293.748" y="715.6" type="line"/>
      <point x="293.748" y="133.36" type="line"/>
      <point x="294.452" y="130.18" type="line"/>
      <point x="294.452" y="0.0" type="line"/>
      <point x="384.636" y="0.0" type="line"/>
      <point x="384.636" y="27.42" type="line"/>
      <point x="383.394" y="27.42" type="line"/>
      <point x="351.86" y="27.42"/>
      <point x="328.562" y="34.42"/>
      <point x="328.562" y="63.42" type="curve" smooth="yes"/>
      <point x="328.562" y="715.6" type="line"/>
    </contour>
    <contour>
      <point x="64.3" y="-126.28" type="line"/>
      <point x="64.3" y="-156.56" type="line"/>
      <point x="348.014" y="-156.56" type="line"/>
      <point x="348.014" y="-126.28" type="line"/>
    </contour>
    <contour>
      <point x="162.89600000000002" y="618.06" type="line"/>
      <point x="162.89600000000002" y="587.78" type="line"/>
      <point x="386.726" y="587.78" type="line"/>
      <point x="386.726" y="618.06" type="line"/>
    </contour>
  </outline>
</glyph>
<glyph name="zero.slash" format="2">
  <advance width="383.6"/>
  <outline>
    <contour>
      <point x="79.518" y="131.26" type="line"/>
      <point x="318.068" y="451.02" type="line"/>
      <point x="307.962" y="477.6" type="line"/>
      <point x="66.61" y="154.84" type="line"/>
    </contour>
    <contour>
      <point x="191.8" y="-10.86" type="curve" smooth="yes"/>
      <point x="285.744" y="-10.86"/>
      <point x="356.662" y="121.16"/>
      <point x="356.662" y="304.14" type="curve" smooth="yes"/>
      <point x="356.662" y="487.12"/>
      <point x="285.744" y="619.0"/>
      <point x="191.8" y="619.0" type="curve" smooth="yes"/>
      <point x="97.856" y="619.0"/>
      <point x="26.938" y="487.12"/>
      <point x="26.938" y="304.14" type="curve" smooth="yes"/>
      <point x="26.938" y="121.16"/>
      <point x="97.856" y="-10.86"/>
    </contour>
    <contour>
      <point x="191.8" y="19.14" type="curve" smooth="yes"/>
      <point x="112.856" y="19.14"/>
      <point x="64.336" y="134.3"/>
      <point x="64.336" y="304.14" type="curve" smooth="yes"/>
      <point x="64.336" y="473.12"/>
      <point x="112.856" y="589.0"/>
      <point x="191.8" y="589.0" type="curve" smooth="yes"/>
      <point x="270.744" y="589.0"/>
      <point x="319.264" y="473.12"/>
      <point x="319.264" y="304.14" type="curve" smooth="yes"/>
      <point x="319.264" y="133.44"/>
      <point x="270.744" y="19.14"/>
    </contour>
  </outline>
</glyph>
<glyph name="zero.slashold" format="2">
  <advance width="383.6"/>
  <outline>
    <contour>
      <point x="79.518" y="100.26" type="line"/>
      <point x="318.068" y="420.02" type="line"/>
      <point x="307.962" y="446.6" type="line"/>
      <point x="66.61" y="123.84" type="line"/>
    </contour>
    <contour>
      <point x="191.8" y="14.66" type="curve" smooth="yes"/>
      <point x="103.408" y="14.66"/>
      <point x="49.486000000000004" y="116.74"/>
      <point x="49.486000000000004" y="273.86" type="curve" smooth="yes"/>
      <point x="49.486000000000004" y="429.26"/>
      <point x="103.408" y="532.2"/>
      <point x="191.8" y="532.2" type="curve" smooth="yes"/>
      <point x="280.214" y="532.2"/>
      <point x="334.114" y="429.26"/>
      <point x="334.114" y="273.86" type="curve" smooth="yes"/>
      <point x="334.114" y="115.88"/>
      <point x="280.214" y="14.66"/>
    </contour>
    <contour>
      <point x="191.8" y="-6.9399999999999995" type="curve" smooth="yes"/>
      <point x="281.77" y="-6.9399999999999995"/>
      <point x="342.736" y="107.1"/>
      <point x="342.736" y="273.86" type="curve" smooth="yes"/>
      <point x="342.736" y="439.76"/>
      <point x="281.77" y="553.8"/>
      <point x="191.8" y="553.8" type="curve" smooth="yes"/>
      <point x="101.83" y="553.8"/>
      <point x="40.864000000000004" y="439.76"/>
      <point x="40.864000000000004" y="273.86" type="curve" smooth="yes"/>
      <point x="40.864000000000004" y="107.1"/>
      <point x="101.83" y="-6.9399999999999995"/>
    </contour>
  </outline>
</glyph>
